# WaveFront *.obj file (generated by Autodesk ATF)

mtllib a640338d-aa80-4aae-9592-d40e118ed68e.mtl

g Body1

v 266.700000 -95.250000 95.250000
v 266.700000 -107.950000 95.250000
v 88.900000 -107.950000 95.250000
v 88.900000 -95.250000 95.250000
v 76.200000 -107.950000 107.950000
v 279.400000 -107.950000 107.950000
v 279.400000 -95.250000 107.950000
v 76.200000 -95.250000 107.950000
v 76.200000 -107.950000 6.350000
v 88.900000 -107.950000 6.350000
v 266.700000 -107.950000 6.350000
v 279.400000 -107.950000 6.350000
v 88.900000 -95.250000 6.350000
v 266.700000 -95.250000 6.350000
v 279.400000 -95.250000 6.350000
v 76.200000 -95.250000 6.350000
v 0.000000 0.000000 0.000000
v 0.000000 -203.200000 0.000000
v 0.000000 -203.200000 6.350000
v 0.000000 0.000000 6.350000
v 355.600000 0.000000 0.000000
v 355.600000 0.000000 6.350000
v 355.600000 -203.200000 0.000000
v 355.600000 -203.200000 6.350000
vt 1.270000 17.780000 0.000000
vt 0.000000 17.780000 0.000000
vt 1.270000 0.000000 0.000000
vt 0.000000 0.000000 0.000000
vt -19.685000 -0.635000 0.000000
vt 0.635000 -0.635000 0.000000
vt -19.685000 0.635000 0.000000
vt 0.635000 0.635000 0.000000
vt 1.270000 0.000000 0.000000
vt 1.270000 10.160000 0.000000
vt 0.000000 8.890000 0.000000
vt -19.050000 10.160000 0.000000
vt -17.780000 8.890000 0.000000
vt -19.050000 0.000000 0.000000
vt -17.780000 0.000000 0.000000
vt 0.000000 0.000000 0.000000
vt 1.270000 8.890000 0.000000
vt 0.000000 8.890000 0.000000
vt 1.270000 0.000000 0.000000
vt 0.000000 0.000000 0.000000
vt 1.270000 8.890000 0.000000
vt -0.000000 8.890000 0.000000
vt 1.270000 0.000000 0.000000
vt -0.000000 0.000000 0.000000
vt 20.320000 0.000000 0.000000
vt 20.320000 10.160000 0.000000
vt 19.050000 8.890000 0.000000
vt -0.000000 10.160000 0.000000
vt 1.270000 8.890000 0.000000
vt -0.000000 0.000000 0.000000
vt 1.270000 0.000000 0.000000
vt 19.050000 0.000000 0.000000
vt 0.000000 0.000000 0.000000
vt 1.270000 0.000000 0.000000
vt 0.000000 10.160000 0.000000
vt 1.270000 10.160000 0.000000
vt -0.000000 0.000000 0.000000
vt 1.270000 0.000000 0.000000
vt -0.000000 10.160000 0.000000
vt 1.270000 10.160000 0.000000
vt -0.000000 0.000000 0.000000
vt 20.320000 0.000000 0.000000
vt -0.000000 0.635000 0.000000
vt 20.320000 0.635000 0.000000
vt -0.000000 0.000000 0.000000
vt 35.560000 0.000000 0.000000
vt -0.000000 0.635000 0.000000
vt 35.560000 0.635000 0.000000
vt 0.000000 0.000000 0.000000
vt 20.320000 0.000000 0.000000
vt 0.000000 0.635000 0.000000
vt 20.320000 0.635000 0.000000
vt 0.000000 0.000000 0.000000
vt 35.560000 0.000000 0.000000
vt 0.000000 0.635000 0.000000
vt 35.560000 0.635000 0.000000
vt 8.890000 0.635000 0.000000
vt -8.890000 0.635000 0.000000
vt 8.890000 -0.635000 0.000000
vt -8.890000 -0.635000 0.000000
vt 17.780000 -10.160000 0.000000
vt -17.780000 -10.160000 0.000000
vt -10.160000 -0.635000 0.000000
vt -10.160000 0.635000 0.000000
vt 10.160000 0.635000 0.000000
vt 17.780000 10.160000 0.000000
vt -17.780000 10.160000 0.000000
vt 10.160000 -0.635000 0.000000
vt -17.780000 -10.160000 0.000000
vt 17.780000 -10.160000 0.000000
vt -17.780000 10.160000 0.000000
vt 17.780000 10.160000 0.000000
vn 0.000000 0.000000 -0.100000
vn 0.000000 0.000000 -0.100000
vn 0.000000 0.000000 -0.100000
vn 0.000000 0.000000 -0.100000
vn 0.000000 0.000000 0.100000
vn 0.000000 0.000000 0.100000
vn 0.000000 0.000000 0.100000
vn 0.000000 0.000000 0.100000
vn 0.000000 -0.100000 0.000000
vn 0.000000 -0.100000 0.000000
vn 0.000000 -0.100000 0.000000
vn 0.000000 -0.100000 0.000000
vn 0.000000 -0.100000 0.000000
vn 0.000000 -0.100000 0.000000
vn 0.000000 -0.100000 0.000000
vn 0.000000 -0.100000 0.000000
vn 0.100000 0.000000 0.000000
vn 0.100000 0.000000 0.000000
vn 0.100000 0.000000 0.000000
vn 0.100000 0.000000 0.000000
vn -0.100000 0.000000 0.000000
vn -0.100000 0.000000 0.000000
vn -0.100000 0.000000 0.000000
vn -0.100000 0.000000 0.000000
vn 0.000000 0.100000 0.000000
vn 0.000000 0.100000 0.000000
vn 0.000000 0.100000 0.000000
vn 0.000000 0.100000 0.000000
vn 0.000000 0.100000 0.000000
vn 0.000000 0.100000 0.000000
vn 0.000000 0.100000 0.000000
vn 0.000000 0.100000 0.000000
vn 0.100000 0.000000 0.000000
vn 0.100000 0.000000 0.000000
vn 0.100000 0.000000 0.000000
vn 0.100000 0.000000 0.000000
vn -0.100000 0.000000 0.000000
vn -0.100000 0.000000 0.000000
vn -0.100000 0.000000 0.000000
vn -0.100000 0.000000 0.000000
vn -0.100000 0.000000 0.000000
vn -0.100000 0.000000 0.000000
vn -0.100000 0.000000 0.000000
vn -0.100000 0.000000 0.000000
vn 0.000000 0.100000 0.000000
vn 0.000000 0.100000 0.000000
vn 0.000000 0.100000 0.000000
vn 0.000000 0.100000 0.000000
vn 0.100000 0.000000 0.000000
vn 0.100000 0.000000 0.000000
vn 0.100000 0.000000 0.000000
vn 0.100000 0.000000 0.000000
vn 0.000000 -0.100000 0.000000
vn 0.000000 -0.100000 0.000000
vn 0.000000 -0.100000 0.000000
vn 0.000000 -0.100000 0.000000
vn 0.000000 0.000000 0.100000
vn 0.000000 0.000000 0.100000
vn 0.000000 0.000000 0.100000
vn 0.000000 0.000000 0.100000
vn 0.000000 0.000000 0.100000
vn 0.000000 0.000000 0.100000
vn 0.000000 0.000000 0.100000
vn 0.000000 0.000000 0.100000
vn 0.000000 0.000000 0.100000
vn 0.000000 0.000000 0.100000
vn 0.000000 0.000000 0.100000
vn 0.000000 0.000000 0.100000
vn -0.000000 0.000000 -0.100000
vn -0.000000 0.000000 -0.100000
vn -0.000000 0.000000 -0.100000
vn -0.000000 0.000000 -0.100000
usemtl Steel_-_Satin
f 1/1/1 2/2/2 4/3/3
f 4/3/3 2/2/2 3/4/4
f 5/5/5 6/6/6 8/7/7
f 8/7/7 6/6/6 7/8/8
f 12/9/9 6/10/10 2/11/11
f 2/11/11 6/10/10 5/12/12
f 2/11/11 5/12/12 3/13/13
f 3/13/13 5/12/12 9/14/14
f 3/13/13 9/14/14 10/15/15
f 2/11/11 11/16/16 12/9/9
f 4/17/17 3/18/18 13/19/19
f 13/19/19 3/18/18 10/20/20
f 2/21/21 1/22/22 11/23/23
f 11/23/23 1/22/22 14/24/24
f 16/25/25 8/26/26 4/27/27
f 4/27/27 8/26/26 7/28/28
f 4/27/27 7/28/28 1/29/29
f 1/29/29 7/28/28 15/30/30
f 1/29/29 15/30/30 14/31/31
f 4/27/27 13/32/32 16/25/25
f 12/33/33 15/34/34 6/35/35
f 6/35/35 15/34/34 7/36/36
f 16/37/37 9/38/38 8/39/39
f 8/39/39 9/38/38 5/40/40
f 17/41/41 18/42/42 20/43/43
f 20/43/43 18/42/42 19/44/44
f 21/45/45 17/46/46 22/47/47
f 22/47/47 17/46/46 20/48/48
f 23/49/49 21/50/50 24/51/51
f 24/51/51 21/50/50 22/52/52
f 18/53/53 23/54/54 19/55/55
f 19/55/55 23/54/54 24/56/56
f 14/57/57 13/58/58 11/59/59
f 11/59/59 13/58/58 10/60/60
f 11/59/59 10/60/60 24/61/61
f 24/61/61 10/60/60 19/62/62
f 19/62/62 10/60/60 9/63/63
f 19/62/62 9/63/63 16/64/64
f 15/65/65 22/66/66 14/57/57
f 14/57/57 22/66/66 20/67/67
f 14/57/57 20/67/67 13/58/58
f 13/58/58 20/67/67 16/64/64
f 16/64/64 20/67/67 19/62/62
f 22/66/66 15/65/65 24/61/61
f 24/61/61 15/65/65 12/68/68
f 24/61/61 12/68/68 11/59/59
f 23/69/69 18/70/70 21/71/71
f 21/71/71 18/70/70 17/72/72
# 24 vertices
# 72 texture params
# 72 normals
# 48 facets

# 1 groups
