mtllib path plate.mtl
g Part 1
usemtl 0.972549_0.529412_0.003922_0.000000_0.000000
o mesh0
v -0.302742 -0.0658538 0 
v -0.302742 -0.0658538 0.002794 
v -0.310981 -0.0654071 0.002794 
v -0.310981 -0.0654071 0 
v -0.319123 -0.0640723 0.002794 
v -0.319123 -0.0640723 0 
v -0.327073 -0.061865 0.002794 
v -0.327073 -0.061865 0 
v -0.334738 -0.0588111 0.002794 
v -0.334738 -0.0588111 0 
v -0.342028 -0.0549463 0.002794 
v -0.342028 -0.0549463 0 
v -0.348857 -0.0503161 0.002794 
v -0.348857 -0.0503161 0 
v -0.355145 -0.0449747 0.002794 
v -0.355145 -0.0449747 0 
v -0.360819 -0.0389847 0.002794 
v -0.360819 -0.0389847 0 
v -0.365812 -0.0324163 0.002794 
v -0.365812 -0.0324163 0 
v -0.370066 -0.0253465 0.002794 
v -0.370066 -0.0253465 0 
v -0.37353 -0.0178583 0.002794 
v -0.37353 -0.0178583 0 
v -0.376165 -0.0100395 0.002794 
v -0.376165 -0.0100395 0 
v -0.377939 -0.0019816 0.002794 
v -0.377939 -0.0019816 0 
v -0.378831 0.0062208 0.002794 
v -0.378831 0.0062208 0 
v -0.378831 0.0144716 0.002794 
v -0.378831 0.0144716 0 
v -0.377939 0.022674 0.002794 
v -0.377939 0.022674 0 
v -0.376165 0.0307318 0.002794 
v -0.376165 0.0307318 0 
v -0.37353 0.0385507 0.002794 
v -0.37353 0.0385507 0 
v -0.370066 0.0460389 0.002794 
v -0.370066 0.0460389 0 
v -0.365812 0.0531086 0.002794 
v -0.365812 0.0531086 0 
v -0.360819 0.059677 0.002794 
v -0.360819 0.059677 0 
v -0.355145 0.065667 0.002794 
v -0.355145 0.065667 0 
v -0.348857 0.0710085 0.002794 
v -0.348857 0.0710085 0 
v -0.342028 0.0756387 0.002794 
v -0.342028 0.0756387 0 
v -0.334738 0.0795034 0.002794 
v -0.334738 0.0795034 0 
v -0.327073 0.0825574 0.002794 
v -0.327073 0.0825574 0 
v -0.319123 0.0847647 0.002794 
v -0.319123 0.0847647 0 
v -0.310981 0.0860995 0.002794 
v -0.310981 0.0860995 0 
v -0.302742 0.0865462 0.002794 
v -0.302742 0.0865462 0 
vn 1.83697e-16 -1 0 
vn 1.83697e-16 -1 0 
vn -0.108119 -0.994138 0 
vn -0.108119 -0.994138 0 
vn -0.21497 -0.976621 0 
vn -0.21497 -0.976621 0 
vn -0.319302 -0.947653 0 
vn -0.319302 -0.947653 0 
vn -0.419889 -0.907575 0 
vn -0.419889 -0.907575 0 
vn -0.515554 -0.856857 0 
vn -0.515554 -0.856857 0 
vn -0.605174 -0.796093 0 
vn -0.605174 -0.796093 0 
vn -0.687699 -0.725995 0 
vn -0.687699 -0.725995 0 
vn -0.762162 -0.647386 0 
vn -0.762162 -0.647386 0 
vn -0.827689 -0.561187 0 
vn -0.827689 -0.561187 0 
vn -0.883512 -0.468408 0 
vn -0.883512 -0.468408 0 
vn -0.928977 -0.370138 0 
vn -0.928977 -0.370138 0 
vn -0.96355 -0.267528 0 
vn -0.96355 -0.267528 0 
vn -0.986827 -0.161782 0 
vn -0.986827 -0.161782 0 
vn -0.998533 -0.0541389 0 
vn -0.998533 -0.0541389 0 
vn -0.998533 0.0541389 0 
vn -0.998533 0.0541389 0 
vn -0.986827 0.161782 0 
vn -0.986827 0.161782 0 
vn -0.96355 0.267528 0 
vn -0.96355 0.267528 0 
vn -0.928977 0.370138 0 
vn -0.928977 0.370138 0 
vn -0.883512 0.468408 0 
vn -0.883512 0.468408 0 
vn -0.827689 0.561187 0 
vn -0.827689 0.561187 0 
vn -0.762162 0.647386 0 
vn -0.762162 0.647386 0 
vn -0.687699 0.725995 0 
vn -0.687699 0.725995 0 
vn -0.605174 0.796093 0 
vn -0.605174 0.796093 0 
vn -0.515554 0.856857 0 
vn -0.515554 0.856857 0 
vn -0.419889 0.907575 0 
vn -0.419889 0.907575 0 
vn -0.319302 0.947653 0 
vn -0.319302 0.947653 0 
vn -0.21497 0.976621 0 
vn -0.21497 0.976621 0 
vn -0.108119 0.994138 0 
vn -0.108119 0.994138 0 
vn -3.06162e-16 1 0 
vn -3.06162e-16 1 0 
f 1//1 2//2 3//3 
f 4//4 3//3 5//5 
f 6//6 5//5 7//7 
f 8//8 7//7 9//9 
f 10//10 9//9 11//11 
f 12//12 11//11 13//13 
f 14//14 13//13 15//15 
f 16//16 15//15 17//17 
f 18//18 17//17 19//19 
f 20//20 19//19 21//21 
f 22//22 21//21 23//23 
f 24//24 23//23 25//25 
f 26//26 25//25 27//27 
f 28//28 27//27 29//29 
f 30//30 29//29 31//31 
f 32//32 31//31 33//33 
f 34//34 33//33 35//35 
f 36//36 35//35 37//37 
f 38//38 37//37 39//39 
f 40//40 39//39 41//41 
f 42//42 41//41 43//43 
f 44//44 43//43 45//45 
f 46//46 45//45 47//47 
f 48//48 47//47 49//49 
f 50//50 49//49 51//51 
f 52//52 51//51 53//53 
f 54//54 53//53 55//55 
f 56//56 55//55 57//57 
f 58//58 57//57 59//59 
f 59//59 60//60 58//58 
f 57//57 58//58 56//56 
f 55//55 56//56 54//54 
f 53//53 54//54 52//52 
f 51//51 52//52 50//50 
f 49//49 50//50 48//48 
f 47//47 48//48 46//46 
f 45//45 46//46 44//44 
f 43//43 44//44 42//42 
f 41//41 42//42 40//40 
f 39//39 40//40 38//38 
f 37//37 38//38 36//36 
f 35//35 36//36 34//34 
f 33//33 34//34 32//32 
f 31//31 32//32 30//30 
f 29//29 30//30 28//28 
f 27//27 28//28 26//26 
f 25//25 26//26 24//24 
f 23//23 24//24 22//22 
f 21//21 22//22 20//20 
f 19//19 20//20 18//18 
f 17//17 18//18 16//16 
f 15//15 16//16 14//14 
f 13//13 14//14 12//12 
f 11//11 12//12 10//10 
f 9//9 10//10 8//8 
f 7//7 8//8 6//6 
f 5//5 6//6 4//4 
f 3//3 4//4 1//1 
o mesh1
v -0.302742 -0.0658538 0.002794 
v -0.302742 -0.0658538 0 
v 0.306858 -0.0658538 0 
v 0.306858 -0.0658538 0.002794 
vn 0 -1 0 
vn 0 -1 0 
vn 0 -1 0 
vn 0 -1 0 
f 61//61 62//62 63//63 
f 63//63 64//64 61//61 
o mesh2
v 0.306858 0.0865462 0 
v 0.306858 0.0865462 0.002794 
v 0.315096 0.0860995 0.002794 
v 0.315096 0.0860995 0 
v 0.323238 0.0847647 0.002794 
v 0.323238 0.0847647 0 
v 0.331188 0.0825574 0.002794 
v 0.331188 0.0825574 0 
v 0.338853 0.0795034 0.002794 
v 0.338853 0.0795034 0 
v 0.346143 0.0756387 0.002794 
v 0.346143 0.0756387 0 
v 0.352972 0.0710085 0.002794 
v 0.352972 0.0710085 0 
v 0.35926 0.065667 0.002794 
v 0.35926 0.065667 0 
v 0.364934 0.059677 0.002794 
v 0.364934 0.059677 0 
v 0.369928 0.0531086 0.002794 
v 0.369928 0.0531086 0 
v 0.374181 0.0460389 0.002794 
v 0.374181 0.0460389 0 
v 0.377646 0.0385507 0.002794 
v 0.377646 0.0385507 0 
v 0.38028 0.0307318 0.002794 
v 0.38028 0.0307318 0 
v 0.382054 0.022674 0.002794 
v 0.382054 0.022674 0 
v 0.382946 0.0144716 0.002794 
v 0.382946 0.0144716 0 
v 0.382946 0.0062208 0.002794 
v 0.382946 0.0062208 0 
v 0.382054 -0.0019816 0.002794 
v 0.382054 -0.0019816 0 
v 0.38028 -0.0100395 0.002794 
v 0.38028 -0.0100395 0 
v 0.377646 -0.0178583 0.002794 
v 0.377646 -0.0178583 0 
v 0.374181 -0.0253465 0.002794 
v 0.374181 -0.0253465 0 
v 0.369928 -0.0324163 0.002794 
v 0.369928 -0.0324163 0 
v 0.364934 -0.0389847 0.002794 
v 0.364934 -0.0389847 0 
v 0.35926 -0.0449747 0.002794 
v 0.35926 -0.0449747 0 
v 0.352972 -0.0503161 0.002794 
v 0.352972 -0.0503161 0 
v 0.346143 -0.0549463 0.002794 
v 0.346143 -0.0549463 0 
v 0.338853 -0.0588111 0.002794 
v 0.338853 -0.0588111 0 
v 0.331188 -0.061865 0.002794 
v 0.331188 -0.061865 0 
v 0.323238 -0.0640723 0.002794 
v 0.323238 -0.0640723 0 
v 0.315096 -0.0654071 0.002794 
v 0.315096 -0.0654071 0 
v 0.306858 -0.0658538 0.002794 
v 0.306858 -0.0658538 0 
vn -3.06162e-16 1 0 
vn -3.06162e-16 1 0 
vn 0.108119 0.994138 0 
vn 0.108119 0.994138 0 
vn 0.21497 0.976621 0 
vn 0.21497 0.976621 0 
vn 0.319302 0.947653 0 
vn 0.319302 0.947653 0 
vn 0.419889 0.907575 0 
vn 0.419889 0.907575 0 
vn 0.515554 0.856857 0 
vn 0.515554 0.856857 0 
vn 0.605174 0.796093 0 
vn 0.605174 0.796093 0 
vn 0.687699 0.725995 0 
vn 0.687699 0.725995 0 
vn 0.762162 0.647386 0 
vn 0.762162 0.647386 0 
vn 0.827689 0.561187 0 
vn 0.827689 0.561187 0 
vn 0.883512 0.468408 0 
vn 0.883512 0.468408 0 
vn 0.928977 0.370138 0 
vn 0.928977 0.370138 0 
vn 0.96355 0.267528 0 
vn 0.96355 0.267528 0 
vn 0.986827 0.161782 0 
vn 0.986827 0.161782 0 
vn 0.998533 0.0541389 0 
vn 0.998533 0.0541389 0 
vn 0.998533 -0.0541389 0 
vn 0.998533 -0.0541389 0 
vn 0.986827 -0.161782 0 
vn 0.986827 -0.161782 0 
vn 0.96355 -0.267528 0 
vn 0.96355 -0.267528 0 
vn 0.928977 -0.370138 0 
vn 0.928977 -0.370138 0 
vn 0.883512 -0.468408 0 
vn 0.883512 -0.468408 0 
vn 0.827689 -0.561187 0 
vn 0.827689 -0.561187 0 
vn 0.762162 -0.647386 0 
vn 0.762162 -0.647386 0 
vn 0.687699 -0.725995 0 
vn 0.687699 -0.725995 0 
vn 0.605174 -0.796093 0 
vn 0.605174 -0.796093 0 
vn 0.515554 -0.856857 0 
vn 0.515554 -0.856857 0 
vn 0.419889 -0.907575 0 
vn 0.419889 -0.907575 0 
vn 0.319302 -0.947653 0 
vn 0.319302 -0.947653 0 
vn 0.21497 -0.976621 0 
vn 0.21497 -0.976621 0 
vn 0.108119 -0.994138 0 
vn 0.108119 -0.994138 0 
vn 1.83697e-16 -1 0 
vn 1.83697e-16 -1 0 
f 65//65 66//66 67//67 
f 68//68 67//67 69//69 
f 70//70 69//69 71//71 
f 72//72 71//71 73//73 
f 74//74 73//73 75//75 
f 76//76 75//75 77//77 
f 78//78 77//77 79//79 
f 80//80 79//79 81//81 
f 82//82 81//81 83//83 
f 84//84 83//83 85//85 
f 86//86 85//85 87//87 
f 88//88 87//87 89//89 
f 90//90 89//89 91//91 
f 92//92 91//91 93//93 
f 94//94 93//93 95//95 
f 96//96 95//95 97//97 
f 98//98 97//97 99//99 
f 100//100 99//99 101//101 
f 102//102 101//101 103//103 
f 104//104 103//103 105//105 
f 106//106 105//105 107//107 
f 108//108 107//107 109//109 
f 110//110 109//109 111//111 
f 112//112 111//111 113//113 
f 114//114 113//113 115//115 
f 116//116 115//115 117//117 
f 118//118 117//117 119//119 
f 120//120 119//119 121//121 
f 122//122 121//121 123//123 
f 123//123 124//124 122//122 
f 121//121 122//122 120//120 
f 119//119 120//120 118//118 
f 117//117 118//118 116//116 
f 115//115 116//116 114//114 
f 113//113 114//114 112//112 
f 111//111 112//112 110//110 
f 109//109 110//110 108//108 
f 107//107 108//108 106//106 
f 105//105 106//106 104//104 
f 103//103 104//104 102//102 
f 101//101 102//102 100//100 
f 99//99 100//100 98//98 
f 97//97 98//98 96//96 
f 95//95 96//96 94//94 
f 93//93 94//94 92//92 
f 91//91 92//92 90//90 
f 89//89 90//90 88//88 
f 87//87 88//88 86//86 
f 85//85 86//86 84//84 
f 83//83 84//84 82//82 
f 81//81 82//82 80//80 
f 79//79 80//80 78//78 
f 77//77 78//78 76//76 
f 75//75 76//76 74//74 
f 73//73 74//74 72//72 
f 71//71 72//72 70//70 
f 69//69 70//70 68//68 
f 67//67 68//68 65//65 
o mesh3
v 0.306858 0.0865462 0.002794 
v 0.306858 0.0865462 0 
v -0.302742 0.0865462 0 
v -0.302742 0.0865462 0.002794 
vn 0 1 0 
vn 0 1 0 
vn 0 1 0 
vn 0 1 0 
f 125//125 126//126 127//127 
f 127//127 128//128 125//125 
o mesh4
v 0.323238 0.0847647 0.002794 
v 0.346143 0.0756387 0.002794 
v 0.338853 0.0795034 0.002794 
v 0.35926 0.065667 0.002794 
v 0.352972 0.0710085 0.002794 
v 0.306858 0.0865462 0.002794 
v 0.369928 0.0531086 0.002794 
v 0.364934 0.059677 0.002794 
v 0.315096 0.0860995 0.002794 
v 0.374181 0.0460389 0.002794 
v -0.360819 0.059677 0.002794 
v -0.310981 0.0860995 0.002794 
v -0.319123 0.0847647 0.002794 
v 0.331188 0.0825574 0.002794 
v 0.377646 0.0385507 0.002794 
v 0.377646 -0.0178583 0.002794 
v 0.38028 -0.0100395 0.002794 
v 0.369928 -0.0324163 0.002794 
v 0.374181 -0.0253465 0.002794 
v 0.346143 -0.0549463 0.002794 
v 0.352972 -0.0503161 0.002794 
v 0.323238 -0.0640723 0.002794 
v 0.331188 -0.061865 0.002794 
v 0.306858 -0.0658538 0.002794 
v 0.315096 -0.0654071 0.002794 
v -0.302742 0.0865462 0.002794 
v -0.348857 -0.0503161 0.002794 
v -0.342028 -0.0549463 0.002794 
v -0.365812 -0.0324163 0.002794 
v -0.360819 -0.0389847 0.002794 
v -0.365812 0.0531086 0.002794 
v -0.370066 0.0460389 0.002794 
v -0.334738 0.0795034 0.002794 
v -0.342028 0.0756387 0.002794 
v -0.327073 0.0825574 0.002794 
v 0.382054 0.022674 0.002794 
v 0.38028 0.0307318 0.002794 
v 0.382946 0.0062208 0.002794 
v 0.382946 0.0144716 0.002794 
v 0.35926 -0.0449747 0.002794 
v 0.364934 -0.0389847 0.002794 
v 0.338853 -0.0588111 0.002794 
v -0.334738 -0.0588111 0.002794 
v -0.370066 -0.0253465 0.002794 
v -0.378831 0.0062208 0.002794 
v -0.377939 -0.0019816 0.002794 
v -0.37353 0.0385507 0.002794 
v -0.348857 0.0710085 0.002794 
v 0.382054 -0.0019816 0.002794 
v -0.319123 -0.0640723 0.002794 
v -0.310981 -0.0654071 0.002794 
v -0.327073 -0.061865 0.002794 
v -0.355145 -0.0449747 0.002794 
v -0.376165 -0.0100395 0.002794 
v -0.37353 -0.0178583 0.002794 
v -0.378831 0.0144716 0.002794 
v -0.376165 0.0307318 0.002794 
v -0.377939 0.022674 0.002794 
v -0.355145 0.065667 0.002794 
v -0.302742 -0.0658538 0.002794 
vn 0 0 1 
vn 0 0 1 
vn 0 0 1 
vn 0 0 1 
vn 0 0 1 
vn 0 0 1 
vn 0 0 1 
vn 0 0 1 
vn 0 0 1 
vn 0 0 1 
vn 0 0 1 
vn 0 0 1 
vn 0 0 1 
vn 0 0 1 
vn 0 0 1 
vn 0 0 1 
vn 0 0 1 
vn 0 0 1 
vn 0 0 1 
vn 0 0 1 
vn 0 0 1 
vn 0 0 1 
vn 0 0 1 
vn 0 0 1 
vn 0 0 1 
vn 0 0 1 
vn 0 0 1 
vn 0 0 1 
vn 0 0 1 
vn 0 0 1 
vn 0 0 1 
vn 0 0 1 
vn 0 0 1 
vn 0 0 1 
vn 0 0 1 
vn 0 0 1 
vn 0 0 1 
vn 0 0 1 
vn 0 0 1 
vn 0 0 1 
vn 0 0 1 
vn 0 0 1 
vn 0 0 1 
vn 0 0 1 
vn 0 0 1 
vn 0 0 1 
vn 0 0 1 
vn 0 0 1 
vn 0 0 1 
vn 0 0 1 
vn 0 0 1 
vn 0 0 1 
vn 0 0 1 
vn 0 0 1 
vn 0 0 1 
vn 0 0 1 
vn 0 0 1 
vn 0 0 1 
vn 0 0 1 
vn 0 0 1 
f 129//129 130//130 131//131 
f 129//129 132//132 133//133 
f 134//134 135//135 136//136 
f 132//132 129//129 137//137 
f 133//133 130//130 129//129 
f 134//134 138//138 135//135 
f 139//139 140//140 141//141 
f 131//131 142//142 129//129 
f 134//134 143//143 138//138 
f 134//134 144//144 145//145 
f 134//134 146//146 147//147 
f 134//134 148//148 149//149 
f 134//134 150//150 151//151 
f 134//134 152//152 153//153 
f 154//154 155//155 156//156 
f 154//154 157//157 158//158 
f 154//154 159//159 160//160 
f 139//139 161//161 162//162 
f 141//141 163//163 139//139 
f 136//136 132//132 134//134 
f 134//134 164//164 165//165 
f 134//134 166//166 167//167 
f 147//147 144//144 134//134 
f 134//134 168//168 169//169 
f 134//134 170//170 148//148 
f 153//153 150//150 134//134 
f 156//156 171//171 154//154 
f 154//154 172//172 157//157 
f 154//154 173//173 174//174 
f 160//160 175//175 154//154 
f 162//162 176//176 139//139 
f 139//139 154//154 140//140 
f 165//165 143//143 134//134 
f 134//134 177//177 166//166 
f 169//169 146//146 134//134 
f 151//151 170//170 134//134 
f 154//154 178//178 179//179 
f 171//171 180//180 154//154 
f 158//158 181//181 154//154 
f 154//154 182//182 183//183 
f 154//154 184//184 173//173 
f 154//154 185//185 186//186 
f 154//154 139//139 159//159 
f 163//163 161//161 139//139 
f 167//167 164//164 134//134 
f 149//149 168//168 134//134 
f 180//180 178//178 154//154 
f 183//183 172//172 154//154 
f 186//186 184//184 154//154 
f 176//176 187//187 139//139 
f 188//188 152//152 134//134 
f 145//145 177//177 134//134 
f 181//181 155//155 154//154 
f 175//175 185//185 154//154 
f 137//137 134//134 132//132 
f 174//174 182//182 154//154 
f 179//179 188//188 154//154 
f 134//134 154//154 188//188 
o mesh5
v -0.360819 0.059677 0 
v -0.327073 0.0825574 0 
v -0.319123 0.0847647 0 
v 0.306858 -0.0658538 0 
v 0.331188 0.0825574 0 
v 0.338853 0.0795034 0 
v -0.334738 0.0795034 0 
v -0.348857 0.0710085 0 
v -0.342028 0.0756387 0 
v -0.302742 0.0865462 0 
v -0.37353 0.0385507 0 
v -0.370066 0.0460389 0 
v -0.360819 -0.0389847 0 
v -0.365812 -0.0324163 0 
v -0.334738 -0.0588111 0 
v -0.342028 -0.0549463 0 
v 0.338853 -0.0588111 0 
v 0.323238 -0.0640723 0 
v 0.315096 -0.0654071 0 
v 0.35926 -0.0449747 0 
v 0.352972 -0.0503161 0 
v 0.377646 -0.0178583 0 
v 0.374181 -0.0253465 0 
v 0.382054 -0.0019816 0 
v 0.38028 -0.0100395 0 
v 0.35926 0.065667 0 
v 0.364934 0.059677 0 
v 0.346143 0.0756387 0 
v 0.352972 0.0710085 0 
v 0.323238 0.0847647 0 
v -0.310981 0.0860995 0 
v -0.355145 0.065667 0 
v -0.376165 0.0307318 0 
v -0.378831 0.0144716 0 
v -0.377939 0.022674 0 
v -0.370066 -0.0253465 0 
v -0.37353 -0.0178583 0 
v -0.355145 -0.0449747 0 
v -0.327073 -0.061865 0 
v 0.331188 -0.061865 0 
v 0.346143 -0.0549463 0 
v 0.369928 -0.0324163 0 
v 0.364934 -0.0389847 0 
v 0.369928 0.0531086 0 
v 0.306858 0.0865462 0 
v 0.315096 0.0860995 0 
v -0.365812 0.0531086 0 
v -0.378831 0.0062208 0 
v -0.376165 -0.0100395 0 
v -0.377939 -0.0019816 0 
v -0.319123 -0.0640723 0 
v -0.302742 -0.0658538 0 
v -0.310981 -0.0654071 0 
v 0.382946 0.0144716 0 
v 0.382946 0.0062208 0 
v 0.374181 0.0460389 0 
v -0.348857 -0.0503161 0 
v 0.382054 0.022674 0 
v 0.377646 0.0385507 0 
v 0.38028 0.0307318 0 
vn 0 0 -1 
vn 0 0 -1 
vn 0 0 -1 
vn 0 0 -1 
vn 0 0 -1 
vn 0 0 -1 
vn 0 0 -1 
vn 0 0 -1 
vn 0 0 -1 
vn 0 0 -1 
vn 0 0 -1 
vn 0 0 -1 
vn 0 0 -1 
vn 0 0 -1 
vn 0 0 -1 
vn 0 0 -1 
vn 0 0 -1 
vn 0 0 -1 
vn 0 0 -1 
vn 0 0 -1 
vn 0 0 -1 
vn 0 0 -1 
vn 0 0 -1 
vn 0 0 -1 
vn 0 0 -1 
vn 0 0 -1 
vn 0 0 -1 
vn 0 0 -1 
vn 0 0 -1 
vn 0 0 -1 
vn 0 0 -1 
vn 0 0 -1 
vn 0 0 -1 
vn 0 0 -1 
vn 0 0 -1 
vn 0 0 -1 
vn 0 0 -1 
vn 0 0 -1 
vn 0 0 -1 
vn 0 0 -1 
vn 0 0 -1 
vn 0 0 -1 
vn 0 0 -1 
vn 0 0 -1 
vn 0 0 -1 
vn 0 0 -1 
vn 0 0 -1 
vn 0 0 -1 
vn 0 0 -1 
vn 0 0 -1 
vn 0 0 -1 
vn 0 0 -1 
vn 0 0 -1 
vn 0 0 -1 
vn 0 0 -1 
vn 0 0 -1 
vn 0 0 -1 
vn 0 0 -1 
vn 0 0 -1 
vn 0 0 -1 
f 189//189 190//190 191//191 
f 192//192 193//193 194//194 
f 189//189 195//195 190//190 
f 189//189 196//196 197//197 
f 198//198 199//199 200//200 
f 198//198 201//201 202//202 
f 198//198 203//203 204//204 
f 205//205 206//206 207//207 
f 192//192 208//208 209//209 
f 192//192 210//210 211//211 
f 192//192 212//212 213//213 
f 192//192 214//214 215//215 
f 192//192 216//216 217//217 
f 192//192 218//218 193//193 
f 191//191 219//219 189//189 
f 189//189 220//220 196//196 
f 198//198 221//221 199//199 
f 198//198 222//222 223//223 
f 198//198 224//224 225//225 
f 198//198 226//226 201//201 
f 198//198 227//227 203//203 
f 205//205 228//228 206//206 
f 209//209 229//229 192//192 
f 192//192 230//230 231//231 
f 213//213 210//210 192//192 
f 215//215 232//232 192//192 
f 194//194 216//216 192//192 
f 192//192 233//233 234//234 
f 197//197 195//195 189//189 
f 200//200 235//235 198//198 
f 198//198 236//236 222//222 
f 198//198 237//237 238//238 
f 202//202 224//224 198//198 
f 198//198 239//239 227//227 
f 198//198 240//240 241//241 
f 229//229 205//205 192//192 
f 211//211 230//230 192//192 
f 192//192 242//242 243//243 
f 232//232 244//244 192//192 
f 234//234 218//218 192//192 
f 235//235 189//189 198//198 
f 238//238 236//236 198//198 
f 198//198 245//245 226//226 
f 241//241 239//239 198//198 
f 231//231 208//208 192//192 
f 192//192 246//246 242//242 
f 192//192 247//247 248//248 
f 217//217 214//214 192//192 
f 223//223 221//221 198//198 
f 204//204 245//245 198//198 
f 243//243 212//212 192//192 
f 244//244 247//247 192//192 
f 225//225 237//237 198//198 
f 192//192 240//240 198//198 
f 248//248 246//246 192//192 
f 198//198 233//233 192//192 
f 219//219 198//198 189//189 
f 207//207 192//192 205//205 
